<svg width="1080" height="203" viewBox="0 0 1080 203" fill="none" xmlns="http://www.w3.org/2000/svg">
<path fill-rule="evenodd" clip-rule="evenodd" d="M-15 83.4366L42.0284 112.415C95.8886 144.291 206.777 205.146 320.834 184.861C431.723 167.474 542.611 68.9474 653.5 25.48C764.389 -15.0897 875.277 -3.49837 989.334 34.1735C1100.22 68.9474 1211.11 129.802 1264.97 161.678L1322 193.554V266H1264.97C1211.11 266 1100.22 266 989.334 266C875.277 266 764.389 266 653.5 266C542.611 266 431.723 266 320.834 266C206.777 266 95.8886 266 42.0284 266H-15V83.4366Z" fill="#379683"/>
</svg>
