<svg width="100" height="18" viewBox="0 0 100 18" fill="none" xmlns="http://www.w3.org/2000/svg">
<path d="M3.08594 3.26562V4.91406C3.3151 4.71615 3.57031 4.50521 3.85156 4.28125C4.13281 4.05729 4.44271 3.85156 4.78125 3.66406C5.11979 3.47656 5.48698 3.32031 5.88281 3.19531C6.27865 3.07031 6.70312 3.00781 7.15625 3.00781C7.88021 3.00781 8.52083 3.17188 9.07812 3.5C9.63542 3.82292 10.0859 4.32552 10.4297 5.00781C10.763 4.70052 11.1068 4.42448 11.4609 4.17969C11.8151 3.92969 12.1771 3.71875 12.5469 3.54688C12.9219 3.375 13.3073 3.24219 13.7031 3.14844C14.099 3.05469 14.5078 3.00781 14.9297 3.00781C15.4661 3.00781 15.9531 3.09896 16.3906 3.28125C16.8333 3.46354 17.2083 3.71354 17.5156 4.03125C17.8229 4.34896 18.0599 4.72396 18.2266 5.15625C18.3984 5.58333 18.4844 6.04167 18.4844 6.53125V14H17.5078V6.78125C17.5078 6.33333 17.4531 5.9349 17.3438 5.58594C17.2396 5.23177 17.0729 4.93229 16.8438 4.6875C16.6198 4.44271 16.3307 4.25781 15.9766 4.13281C15.6276 4.0026 15.2083 3.9375 14.7188 3.9375C14.3281 3.9375 13.9401 3.99479 13.5547 4.10938C13.1745 4.21875 12.8099 4.36719 12.4609 4.55469C12.112 4.73698 11.7865 4.94531 11.4844 5.17969C11.1823 5.41406 10.9167 5.65625 10.6875 5.90625C10.7135 6.05208 10.7266 6.17708 10.7266 6.28125C10.7318 6.38542 10.7344 6.51042 10.7344 6.65625V14H9.75781V6.78125C9.75781 6.25 9.6875 5.80469 9.54688 5.44531C9.40625 5.08073 9.21094 4.78646 8.96094 4.5625C8.71094 4.33854 8.41406 4.17969 8.07031 4.08594C7.73177 3.98698 7.36198 3.9375 6.96094 3.9375C6.58073 3.9375 6.20312 4.0026 5.82812 4.13281C5.45833 4.26302 5.10417 4.43229 4.76562 4.64062C4.42708 4.84896 4.11458 5.08333 3.82812 5.34375C3.54167 5.59896 3.29427 5.85417 3.08594 6.10938V14H2.10938V3.26562H3.08594ZM33.0078 10.0781C33.0078 10.7812 32.8438 11.3906 32.5156 11.9062C32.1875 12.4167 31.7344 12.8411 31.1562 13.1797C30.5833 13.5182 29.9036 13.7708 29.1172 13.9375C28.3359 14.099 27.4896 14.1797 26.5781 14.1797C25.5885 14.1797 24.6797 14.1172 23.8516 13.9922C23.0234 13.862 22.2995 13.6823 21.6797 13.4531V12.3203C22.013 12.4609 22.3568 12.5911 22.7109 12.7109C23.0651 12.8307 23.4427 12.9375 23.8438 13.0312C24.2448 13.1198 24.6719 13.1901 25.125 13.2422C25.5833 13.2891 26.0781 13.3125 26.6094 13.3125C27.3594 13.3125 28.0625 13.2422 28.7188 13.1016C29.375 12.9557 29.9453 12.7474 30.4297 12.4766C30.9193 12.2005 31.3047 11.862 31.5859 11.4609C31.8724 11.0599 32.0156 10.599 32.0156 10.0781V8.04688C31.7656 8.38542 31.4583 8.71094 31.0938 9.02344C30.7344 9.33073 30.3307 9.60417 29.8828 9.84375C29.4401 10.0781 28.9583 10.2682 28.4375 10.4141C27.9167 10.5547 27.3672 10.625 26.7891 10.625C26.1328 10.625 25.5495 10.5651 25.0391 10.4453C24.5339 10.3203 24.0911 10.151 23.7109 9.9375C23.3359 9.72396 23.0182 9.47135 22.7578 9.17969C22.4974 8.88281 22.2865 8.5625 22.125 8.21875C21.9688 7.86979 21.8542 7.50521 21.7812 7.125C21.7135 6.74479 21.6797 6.35938 21.6797 5.96875V3.26562H22.6719V5.75781C22.6719 6.35677 22.7422 6.90104 22.8828 7.39062C23.0286 7.88021 23.2656 8.29948 23.5938 8.64844C23.9219 8.9974 24.3516 9.26823 24.8828 9.46094C25.4193 9.64844 26.0807 9.74219 26.8672 9.74219C27.4766 9.74219 28.0365 9.66146 28.5469 9.5C29.0573 9.33333 29.5234 9.11198 29.9453 8.83594C30.3672 8.55469 30.75 8.23177 31.0938 7.86719C31.4375 7.5026 31.7448 7.11979 32.0156 6.71875V3.26562H33.0078V10.0781ZM40.9766 4.15625V14H40.0078V4.15625H35.125V3.26562H45.8594V4.15625H40.9766ZM48.9453 3.26562V4.91406C49.1745 4.71615 49.4297 4.50521 49.7109 4.28125C49.9922 4.05729 50.3021 3.85156 50.6406 3.66406C50.9792 3.47656 51.3464 3.32031 51.7422 3.19531C52.138 3.07031 52.5625 3.00781 53.0156 3.00781C53.7396 3.00781 54.3802 3.17188 54.9375 3.5C55.4948 3.82292 55.9453 4.32552 56.2891 5.00781C56.6224 4.70052 56.9661 4.42448 57.3203 4.17969C57.6745 3.92969 58.0365 3.71875 58.4062 3.54688C58.7812 3.375 59.1667 3.24219 59.5625 3.14844C59.9583 3.05469 60.3672 3.00781 60.7891 3.00781C61.3255 3.00781 61.8125 3.09896 62.25 3.28125C62.6927 3.46354 63.0677 3.71354 63.375 4.03125C63.6823 4.34896 63.9193 4.72396 64.0859 5.15625C64.2578 5.58333 64.3438 6.04167 64.3438 6.53125V14H63.3672V6.78125C63.3672 6.33333 63.3125 5.9349 63.2031 5.58594C63.099 5.23177 62.9323 4.93229 62.7031 4.6875C62.4792 4.44271 62.1901 4.25781 61.8359 4.13281C61.487 4.0026 61.0677 3.9375 60.5781 3.9375C60.1875 3.9375 59.7995 3.99479 59.4141 4.10938C59.0339 4.21875 58.6693 4.36719 58.3203 4.55469C57.9714 4.73698 57.6458 4.94531 57.3438 5.17969C57.0417 5.41406 56.776 5.65625 56.5469 5.90625C56.5729 6.05208 56.5859 6.17708 56.5859 6.28125C56.5911 6.38542 56.5938 6.51042 56.5938 6.65625V14H55.6172V6.78125C55.6172 6.25 55.5469 5.80469 55.4062 5.44531C55.2656 5.08073 55.0703 4.78646 54.8203 4.5625C54.5703 4.33854 54.2734 4.17969 53.9297 4.08594C53.5911 3.98698 53.2214 3.9375 52.8203 3.9375C52.4401 3.9375 52.0625 4.0026 51.6875 4.13281C51.3177 4.26302 50.9635 4.43229 50.625 4.64062C50.2865 4.84896 49.974 5.08333 49.6875 5.34375C49.401 5.59896 49.1536 5.85417 48.9453 6.10938V14H47.9688V3.26562H48.9453ZM76.5781 4.85156C76.375 4.7526 76.1406 4.64844 75.875 4.53906C75.6094 4.42448 75.3047 4.32292 74.9609 4.23438C74.6224 4.14583 74.2396 4.07292 73.8125 4.01562C73.3854 3.95312 72.9115 3.92188 72.3906 3.92188C71.7604 3.92188 71.1979 3.95833 70.7031 4.03125C70.2135 4.10417 69.7969 4.21875 69.4531 4.375C69.1146 4.52604 68.8542 4.71875 68.6719 4.95312C68.4948 5.1875 68.4062 5.46615 68.4062 5.78906C68.4062 6.0599 68.4896 6.29688 68.6562 6.5C68.8281 6.70312 69.0573 6.88281 69.3438 7.03906C69.6354 7.19531 69.974 7.33854 70.3594 7.46875C70.75 7.59375 71.1615 7.71354 71.5938 7.82812C72.0312 7.9375 72.4792 8.04948 72.9375 8.16406C73.401 8.27865 73.849 8.40365 74.2812 8.53906C74.7188 8.66927 75.1302 8.81771 75.5156 8.98438C75.9062 9.14583 76.2448 9.33594 76.5312 9.55469C76.8229 9.77344 77.0521 10.0234 77.2188 10.3047C77.3906 10.5859 77.4766 10.9115 77.4766 11.2812C77.4766 11.6823 77.401 12.0339 77.25 12.3359C77.099 12.6328 76.8932 12.8906 76.6328 13.1094C76.3776 13.3229 76.0755 13.5026 75.7266 13.6484C75.3828 13.7891 75.013 13.901 74.6172 13.9844C74.2266 14.0677 73.8203 14.125 73.3984 14.1562C72.9818 14.1927 72.5703 14.2109 72.1641 14.2109C71.2318 14.2109 70.3854 14.1432 69.625 14.0078C68.8698 13.8724 68.1484 13.6875 67.4609 13.4531V12.2578C68.1693 12.6797 68.9167 12.9688 69.7031 13.125C70.4948 13.2812 71.3255 13.3594 72.1953 13.3594C72.8099 13.3594 73.3776 13.3229 73.8984 13.25C74.4193 13.1771 74.8698 13.0625 75.25 12.9062C75.6302 12.7448 75.9245 12.5365 76.1328 12.2812C76.3464 12.026 76.4531 11.7135 76.4531 11.3438C76.4531 11.0469 76.3672 10.7865 76.1953 10.5625C76.0286 10.3385 75.7995 10.1432 75.5078 9.97656C75.2214 9.80469 74.8828 9.65365 74.4922 9.52344C74.1068 9.39323 73.6979 9.27344 73.2656 9.16406C72.8333 9.04948 72.3854 8.9401 71.9219 8.83594C71.4635 8.72656 71.0182 8.60938 70.5859 8.48438C70.1536 8.35938 69.7422 8.21875 69.3516 8.0625C68.9661 7.90625 68.6276 7.72396 68.3359 7.51562C68.0495 7.30208 67.8203 7.05729 67.6484 6.78125C67.4818 6.50521 67.3984 6.1849 67.3984 5.82031C67.3984 5.46094 67.4661 5.14323 67.6016 4.86719C67.737 4.58594 67.9219 4.34375 68.1562 4.14062C68.3958 3.9375 68.6745 3.76823 68.9922 3.63281C69.3099 3.49219 69.6484 3.38281 70.0078 3.30469C70.3724 3.22135 70.75 3.16146 71.1406 3.125C71.5312 3.08854 71.9167 3.07031 72.2969 3.07031C72.7135 3.07031 73.1068 3.08854 73.4766 3.125C73.8516 3.16146 74.2109 3.21094 74.5547 3.27344C74.9036 3.33073 75.2422 3.39844 75.5703 3.47656C75.9036 3.55469 76.2396 3.63802 76.5781 3.72656V4.85156Z" fill="black"/>
<path fill-rule="evenodd" clip-rule="evenodd" d="M92.6275 14.6253C95.3295 14.6253 97.7256 12.841 98.4903 10.241C96.3637 10.5954 94.0709 9.71446 92.6275 8.15076C91.1841 9.71446 88.8913 10.5954 86.7648 10.241C87.5805 12.8919 89.9256 14.6253 92.6275 14.6253Z" fill="#379683"/>
<path fill-rule="evenodd" clip-rule="evenodd" d="M98.7451 8.96642C98.7451 6.10845 97.2252 3.48733 94.3608 2.64485C94.6239 4.22325 94.1703 5.9447 93.3412 7.28407C94.7118 8.71995 96.7981 9.45318 98.7451 8.96642Z" fill="#5CDB95"/>
<path fill-rule="evenodd" clip-rule="evenodd" d="M91.8628 7.23309C91.0131 5.92587 90.5836 4.20227 90.8432 2.64485C88.0019 3.49723 86.5098 6.13264 86.5098 8.96642C88.4479 9.45095 90.5562 8.73566 91.8628 7.23309Z" fill="#5CDB95"/>
<path fill-rule="evenodd" clip-rule="evenodd" d="M92.6275 6.16255C93.0353 5.39784 93.2392 4.53118 93.2392 3.61353C93.2392 3.20569 93.1882 2.79784 93.0863 2.39C92.9333 2.39 92.7804 2.39 92.6275 2.39C92.4745 2.39 92.3216 2.39 92.1686 2.39C92.0667 2.79784 92.0157 3.20569 92.0157 3.61353C92.0157 4.53118 92.2706 5.39784 92.6275 6.16255Z" fill="#379683"/>
</svg>
