<svg width="13" height="13" viewBox="0 0 13 13" fill="none" xmlns="http://www.w3.org/2000/svg">
<path fill-rule="evenodd" clip-rule="evenodd" d="M6.62752 12.6253C9.32948 12.6253 11.7256 10.841 12.4903 8.24095C10.3637 8.59538 8.07093 7.71446 6.62752 6.15076C5.1841 7.71446 2.89132 8.59538 0.764771 8.24095C1.58046 10.8919 3.92555 12.6253 6.62752 12.6253Z" fill="#379683"/>
<path fill-rule="evenodd" clip-rule="evenodd" d="M12.7451 6.96642C12.7451 4.10845 11.2252 1.48733 8.36079 0.644852C8.62386 2.22325 8.17032 3.9447 7.34119 5.28407C8.7118 6.71995 10.7981 7.45318 12.7451 6.96642Z" fill="#5CDB95"/>
<path fill-rule="evenodd" clip-rule="evenodd" d="M5.86277 5.23309C5.01308 3.92587 4.58359 2.20227 4.84316 0.644852C2.00191 1.49723 0.509827 4.13264 0.509827 6.96642C2.44793 7.45095 4.55619 6.73566 5.86277 5.23309Z" fill="#5CDB95"/>
<path fill-rule="evenodd" clip-rule="evenodd" d="M6.62745 4.16255C7.03529 3.39784 7.23922 2.53118 7.23922 1.61353C7.23922 1.20569 7.18823 0.797843 7.08627 0.389999C6.93333 0.389999 6.78039 0.389999 6.62745 0.389999C6.47451 0.389999 6.32157 0.389999 6.16863 0.389999C6.06667 0.797843 6.01569 1.20569 6.01569 1.61353C6.01569 2.53118 6.27059 3.39784 6.62745 4.16255Z" fill="#379683"/>
</svg>
