<svg width="800" height="800" viewBox="0 0 800 800" fill="none" xmlns="http://www.w3.org/2000/svg">
<path d="M400 40C329.27 40.0515 260.123 60.9369 201.191 100.049C142.259 139.16 96.1546 194.765 68.6331 259.921C41.1116 325.076 33.3929 396.896 46.4408 466.411C59.4887 535.927 92.7251 600.059 142 650.8C157.663 613.941 181.05 580.871 210.584 553.821C240.117 526.771 275.11 506.372 313.2 494C284.185 475.262 262.012 447.638 249.996 415.257C237.979 382.875 236.764 347.474 246.531 314.344C256.299 281.214 276.525 252.135 304.186 231.451C331.848 210.768 365.46 199.591 400 199.591C434.54 199.591 468.152 210.768 495.814 231.451C523.475 252.135 543.701 281.214 553.469 314.344C563.237 347.474 562.021 382.875 550.005 415.257C537.988 447.638 515.815 475.262 486.8 494C524.89 506.372 559.883 526.771 589.416 553.821C618.95 580.871 642.337 613.941 658 650.8C707.275 600.059 740.511 535.927 753.559 466.411C766.607 396.896 758.889 325.076 731.367 259.921C703.846 194.765 657.741 139.16 598.809 100.049C539.877 60.9369 470.73 40.0515 400 40Z" fill="#5CDB95"/>
<path d="M560 360C560 391.645 550.616 422.579 533.035 448.891C515.454 475.203 490.466 495.711 461.229 507.821C431.993 519.931 399.823 523.099 368.786 516.926C337.749 510.752 309.239 495.513 286.863 473.137C264.487 450.761 249.248 422.251 243.074 391.214C236.901 360.177 240.069 328.007 252.179 298.771C264.289 269.534 284.797 244.546 311.109 226.965C337.421 209.384 368.355 200 400 200C442.435 200 483.131 216.857 513.137 246.863C543.143 276.869 560 317.565 560 360ZM486.8 494C461.023 510.947 430.849 519.978 400 519.978C369.151 519.978 338.977 510.947 313.2 494C275.11 506.372 240.117 526.771 210.584 553.821C181.05 580.87 157.663 613.941 142 650.8C175.249 684.96 214.95 712.177 258.801 730.87C302.652 749.564 349.779 759.363 397.448 759.698C445.116 760.032 492.376 750.897 536.485 732.821C580.595 714.745 620.675 688.089 654.4 654.4L658 650.8C642.337 613.941 618.95 580.87 589.416 553.821C559.883 526.771 524.89 506.372 486.8 494ZM760 400C760 304.522 722.072 212.955 654.558 145.442C587.045 77.9285 495.478 40 400 40C304.522 40 212.955 77.9285 145.442 145.442C77.9285 212.955 40 304.522 40 400C40 495.478 77.9285 587.045 145.442 654.558C212.955 722.072 304.522 760 400 760C495.478 760 587.045 722.072 654.558 654.558C722.072 587.045 760 495.478 760 400Z" stroke="black" stroke-width="80" stroke-linecap="round" stroke-linejoin="round"/>
</svg>
