<svg width="1080" height="189" viewBox="0 0 1080 189" fill="none" xmlns="http://www.w3.org/2000/svg">
<path fill-rule="evenodd" clip-rule="evenodd" d="M-15 0L29.5252 25C74.0505 50 174.232 100 263.283 133.333C352.333 166.667 441.384 183.333 541.566 158.333C630.616 133.333 719.667 66.6667 808.717 41.6667C908.899 16.6667 997.949 33.3333 1042.47 41.6667L1087 50V225H1042.47C997.949 225 908.899 225 808.717 225C719.667 225 630.616 225 541.566 225C441.384 225 352.333 225 263.283 225C174.232 225 74.0505 225 29.5252 225H-15V0Z" fill="#8EE4AF"/>
</svg>
