<svg width="1067" height="153" viewBox="0 0 1067 153" fill="none" xmlns="http://www.w3.org/2000/svg">
<path fill-rule="evenodd" clip-rule="evenodd" d="M0 11.6085L31.9825 15.5542C64.9342 19.4999 128.899 27.3912 193.833 19.4999C258.768 11.6085 322.733 -12.0654 387.667 7.66289C452.601 27.3912 516.566 90.5217 581.5 106.304C646.434 122.087 710.399 90.5217 775.333 78.6847C840.268 66.8477 904.233 74.739 969.167 98.413C1034.1 122.087 1098.07 161.543 1131.02 181.272L1163 201H1131.02C1098.07 201 1034.1 201 969.167 201C904.233 201 840.268 201 775.333 201C710.399 201 646.434 201 581.5 201C516.566 201 452.601 201 387.667 201C322.733 201 258.768 201 193.833 201C128.899 201 64.9342 201 31.9825 201H0V11.6085Z" fill="#5CDB95"/>
</svg>
